<?xml version="1.0" encoding="UTF-8"?> <!-- Generator: Adobe Illustrator 25.2.3, SVG Export Plug-In . SVG Version: 6.00 Build 0) --> <svg xmlns="http://www.w3.org/2000/svg" xmlns:xlink="http://www.w3.org/1999/xlink" id="Layer_1" x="0px" y="0px" width="158px" height="56.3px" viewBox="0 0 158 56.3" style="enable-background:new 0 0 158 56.3;" xml:space="preserve"> <style type="text/css"> .st0{fill:#16A256;} .st1{fill:#070707;} .st2{fill:#16A255;} .st3{fill:#2EAADC;} .st4{fill:#16A355;} .st5{fill:#1DA459;} .st6{fill:#FAFCFB;} .st7{fill:#FBFDFC;} .st8{fill:#F9FCFA;} .st9{fill:#46AC70;} .st10{fill:#FFFFFF;} .st11{fill:#060606;} </style> <g> <g> <g> <g> <g> <path class="st0" d="M1,12.2c0-2.7,0-5.3,0-8c0-0.9,0-1.9,0-2.8c0-0.1,0-0.1,0-0.2c0.5,0,1,0,1.5,0c0.3,0,0.6,0,0.9,0 c0.1,0,0.2,0.1,0.2,0.1c0.3,1,1,1.7,1.9,2.2C7,4.4,8.5,4.8,10,5c1.8,0.2,3.6,0.2,5.4-0.2c1.3-0.2,2.5-0.6,3.6-1.3 c0.7-0.5,1.4-1,1.7-1.8c0.2-0.4,0.4-0.5,0.8-0.5c0.3,0,0.6,0,0.9,0c0.1,0,0.2,0.1,0.2,0.1C23,2.4,23.8,3,24.7,3.6 c1.2,0.7,2.5,1.1,3.9,1.3c1.8,0.3,3.5,0.3,5.3,0c1.3-0.2,2.5-0.6,3.7-1.2c0.8-0.4,1.5-1,1.9-1.8c0.1-0.2,0.2-0.4,0.3-0.6 c0.9,0,1.8,0,2.7,0c0,0.1,0,0.1,0,0.2c0,3.6,0,7.3,0,10.9c-0.5,0-1,0-1.5,0v-0.1c0-3.2,0-6.4,0-9.5c0-0.1,0-0.2,0-0.3 c-0.1,0.1-0.1,0.1-0.1,0.1c-0.5,1.1-1.4,2-2.4,2.7c-1.8,1.2-3.8,1.7-5.9,1.9c-2.1,0.2-4.1,0-6.1-0.6c-1.6-0.5-3-1.2-4.2-2.4 c-0.2-0.2-0.4-0.5-0.6-0.7h-0.1l-0.1,0.1c-0.7,1-1.6,1.7-2.7,2.2c-1.7,0.9-3.6,1.4-5.5,1.5c-2.3,0.2-4.5-0.1-6.6-1 C5.5,5.7,4.3,5,3.3,3.9C3.1,3.7,2.9,3.4,2.7,3.1c0,0.2,0,0.3,0,0.4c0,2.4,0,4.9,0,7.3c0,0.5,0,0.9,0,1.4 C2.1,12.2,1.6,12.2,1,12.2z"></path> <path class="st1" d="M1,12.2c0.5,0,1.1,0,1.6,0c0.1,0,0.2,0,0.3,0c12.6,0,25.1,0,37.6,0c0.1,0,0.2,0,0.3,0c0.5,0,1,0,1.5,0 c0,1,0,2,0,2.9c0,1.3,0,2.6,0,3.9c0,1.1,0,2.2,0.1,3.3c0,1.4,0,2.8,0.1,4.2c0,1.5,0,2.9,0.1,4.4c0,0.9,0,1.7,0,2.6 c0,1.7,0.1,3.5,0.1,5.2c0,1-0.2,2-0.8,2.8c-0.8,1.4-1.8,2.7-2.9,3.9c-1.1,1.1-2.2,2.2-3.4,3.1c-2.1,1.6-4.4,2.8-6.8,3.9 c-2.3,1.1-4.6,2-7,2.8c-0.1,0-0.3,0-0.4,0c-2.7-0.9-5.4-2-8-3.3C11.6,51,9.8,50,8.2,48.8c-2.3-1.7-4.3-3.6-5.9-6 c-0.5-0.7-1-1.4-1.3-2.2s-0.3-1.7-0.3-2.5c0-1.6,0.1-3.2,0.1-4.8c0-1.3,0-2.5,0.1-3.8c0-1.3,0-2.6,0.1-3.9c0-1.2,0-2.4,0-3.6 c0-3.1,0-6.1,0-9.2C1,12.6,1,12.4,1,12.2z M2.3,20.7c0,0.6,0,1.1,0,1.6c0,2.4-0.1,4.8-0.1,7.2c0,1.3,0,2.6-0.1,3.9 C2.1,35.2,2,37,2,38.8c0,0.8,0.2,1.7,0.7,2.4c2,3.4,4.8,6,8.2,8s7,3.5,10.7,4.8c0.1,0,0.2,0,0.3,0c3.4-1.2,6.8-2.6,9.9-4.4 c3.5-2,6.4-4.5,8.5-7.9c0.6-1,1-2,1-3.2c0-2.3-0.1-4.7-0.1-7c0-1.5,0-2.9-0.1-4.4c0-1.8,0-3.5-0.1-5.3c0-0.4,0-0.7,0-1.1 C28.2,20.7,15.3,20.7,2.3,20.7z M1.3,12.4c0,0.1,0,0.2,0,0.3c0,2.4,0,4.9,0,7.3c0,0.4,0,0.4,0.4,0.4c12.4,0,24.7,0,37.1,0 c1.1,0,2.1,0,3.2,0c0.1,0,0.2-0.1,0.2-0.2c0-0.2,0-0.4,0-0.6c0-2.3,0-4.6,0-6.9c0-0.4,0-0.4-0.4-0.4c-13.4,0-26.7,0-40.1,0 C1.5,12.4,1.4,12.4,1.3,12.4z M1.3,20.7c0,0.2,0,0.5,0,0.7c0,1.7,0,3.3-0.1,5c0,1.1,0,2.2-0.1,3.3C1.1,31.5,1,33.2,1,35 c0,0.8,0,1.6,0,2.4c0,1.1-0.1,2.1,0.3,3.2c0.3,0.8,0.8,1.5,1.3,2.3c2.3,3.3,5.3,5.7,8.7,7.6c3.2,1.8,6.6,3.2,10.1,4.4 c0.1,0,0.3,0,0.4,0c3.3-1.1,6.5-2.5,9.5-4.1c3.6-1.9,6.7-4.4,9.1-7.7c0.5-0.7,1-1.4,1.3-2.1c0.5-0.9,0.6-1.9,0.5-3 c-0.1-1.2,0-2.3-0.1-3.5c0-1.4,0-2.8-0.1-4.2c0-2.7-0.1-5.5-0.1-8.2c0-0.4,0-0.9,0-1.4c-0.3,0-0.6,0-0.9,0 c0,1.1,0.1,2.1,0.1,3.1c0,1.6,0.1,3.2,0.1,4.8c0.1,2.4,0.1,4.8,0.2,7.2c0,0.8,0,1.5,0,2.3c0.1,1.2-0.2,2.3-0.8,3.4 c-2,3.2-4.6,5.8-7.8,7.7c-3.5,2.2-7.3,3.7-11.2,5.1c-0.1,0-0.2,0-0.3,0c-3.4-1.2-6.8-2.6-9.9-4.3c-3.3-2-6.2-4.6-8.4-7.9 c-0.7-1.1-1.2-2.3-1.2-3.6c0-0.9,0-1.7,0.1-2.6c0-1.5,0-3.1,0.1-4.6c0-1.1,0-2.1,0.1-3.2C2,25.7,2,23.3,2,20.9 c0-0.1,0-0.2,0-0.2C1.8,20.7,1.6,20.7,1.3,20.7z"></path> <path class="st2" d="M1.3,12.4c0.1,0,0.2,0,0.3,0c13.4,0,26.7,0,40.1,0c0.4,0,0.4,0,0.4,0.4c0,2.3,0,4.6,0,6.9 c0,0.2,0,0.4,0,0.6c0,0.1-0.1,0.2-0.2,0.2c-1.1,0-2.1,0-3.2,0c-12.4,0-24.7,0-37.1,0c-0.4,0-0.4,0-0.4-0.4c0-2.4,0-4.9,0-7.3 C1.3,12.7,1.3,12.6,1.3,12.4z M23.5,15.3c0,0,0.1,0,0.1,0.1c0.1,0.1,0.3,0.1,0.4,0s0-0.2,0-0.3c-0.1,0-0.3,0-0.4,0 s-0.1,0-0.2,0c-0.1-0.1-0.3-0.2-0.4,0c0,0.1,0,0.2,0,0.3C23.2,15.5,23.4,15.4,23.5,15.3z M27.5,16.5c0-0.1,0-0.2,0-0.4 c0-0.2-0.1-0.3-0.3-0.3c-0.6,0-1.2,0-1.8,0c-0.2,0-0.4,0.1-0.3,0.4c0,0.2,0,0.4,0.1,0.6c-0.2,0-0.4,0-0.7,0c0-0.3,0-0.5,0-0.8 c0-0.1-0.1-0.2-0.1-0.2c-0.4,0-0.9,0.1-1.3,0.2c-0.4,0.1-0.6,0.6-0.5,0.9s0.6,0.6,1,0.5c-0.2-0.2-0.5-0.3-0.3-0.6 c0.1-0.2,0.3-0.3,0.5-0.2c0,0.3,0,0.5,0,0.8c0.1,0,0.2,0,0.3,0c0.6,0,1.2,0,1.8,0c1.4,0,2.8,0,4.3,0c0.2,0,0.3,0,0.3-0.3 c0-0.2,0-0.4,0-0.7c0-0.4-0.2-0.6-0.6-0.6s-0.9,0-1.4,0c-0.2,0-0.2,0.1-0.2,0.2c0,0.2,0,0.4,0,0.6c0,0.2-0.1,0.2-0.2,0.2 c-0.6,0-1.2,0-1.8,0c-0.1,0-0.2-0.1-0.2-0.1c0.1-0.1,0.1-0.2,0.2-0.2C26.5,16.4,27,16.5,27.5,16.5z M38.5,16.6v0.1 c-0.1,0-0.1,0-0.2,0c-2.2,0-4.3,0-6.5,0c-0.3,0-0.3-0.1-0.3-0.3c0-0.4,0-0.7,0-1.1c0-0.1-0.1-0.2-0.1-0.2 c-0.2,0-0.5,0.1-0.7,0.1v0.1c0,0.5,0,1,0,1.5c0,0.3,0.2,0.4,0.5,0.5c0.1,0,0.2,0,0.3,0c2.6,0,5.2,0,7.8,0c0.1,0,0.2,0,0.3,0 c-0.1-0.3-0.2-0.5-0.2-0.7c-0.1-0.6-0.4-0.8-1-0.8c-0.5,0-1,0-1.4,0c-0.7,0-0.7-0.2-0.6,0.7l0,0c0.6,0,1.3,0,1.9,0 C38.3,16.5,38.4,16.6,38.5,16.6z M8.6,17.1c0.2,0.1,0.3,0.1,0.5,0.1c2.1,0,4.1,0,6.2,0c0.1,0,0.2,0,0.3,0c0-0.3,0-0.6,0-0.9 c0-0.4-0.1-0.6-0.6-0.6c-0.4,0-0.9,0-1.4,0c-0.2,0-0.2,0.1-0.2,0.2c0,0.3,0,0.5,0,0.8c-0.1,0-0.1,0-0.2,0c-1.5,0-3,0-4.5,0 c-0.2,0-0.2-0.1-0.2-0.3c0-0.2,0-0.4,0-0.6c0-0.1-0.1-0.2-0.2-0.2c-0.4,0-0.9,0-1.3,0s-0.6,0.2-0.6,0.6c0,0.2,0,0.4,0,0.6 c0,0.4,0,0.4,0.4,0.4c0.3,0,0.6,0,0.8,0v0.1c-0.2,0.1-0.3,0.3-0.5,0.4C7.9,18.1,8.5,17.8,8.6,17.1z M17.4,16.8 c0-0.2,0-0.3,0-0.4c0-0.7,0.1-0.6-0.6-0.6c-0.2,0-0.2,0-0.2,0.2c0,0.4,0,0.8,0,1.1s-0.1,0.5-0.3,0.6c-0.1,0-0.1,0.1-0.2,0.1 c0.3,0.1,0.6,0.1,0.9,0s0.5-0.4,0.5-0.7c0.2,0.1,0.4,0.1,0.5,0.1c0.9,0,1.8,0,2.7,0c0.1,0,0.2,0,0.3,0c0.1-0.4,0-0.7-0.2-1.1 c-0.2-0.5-0.7-0.5-1.2-0.5c0.2-0.2,0.3-0.3,0.5-0.4c-0.3,0-0.6,0.1-0.9,0.3c-0.1,0.1-0.3,0.2-0.4,0.2c-0.4,0.1-0.7,0.4-0.6,0.8 c0.6-0.1,0.7-0.1,0.6,0.2C18.4,16.8,17.9,16.8,17.4,16.8z M6.1,17.3c0-0.4,0-0.7,0-1c0-0.3-0.2-0.5-0.4-0.5c-0.4,0-0.8,0-1.2,0 c-0.1,0-0.2,0.1-0.2,0.2c0,0.2,0,0.4,0,0.6c0.9-0.1,1,0,1,0.2c-0.5,0-1,0-1.4,0c0,0.4,0.1,0.6,0.4,0.6 C4.9,17.3,5.5,17.3,6.1,17.3z M37.9,18c0.1-0.2,0.2-0.2,0.2-0.3c0-0.2-0.1-0.3-0.3-0.2c-0.1,0-0.2,0.2-0.3,0.2 C37.7,17.8,37.8,17.9,37.9,18z"></path> <path class="st3" d="M10.8,31.3c0-3.2,0-6.4,0-9.6c0-0.1,0-0.3,0-0.4c0-0.3,0.2-0.4,0.5-0.4c0.4,0,0.8,0,1.2,0 c0.5,0,0.9,0,1.4,0c0.6,0,0.7,0.1,0.7,0.7c0,2.5,0,5.1,0,7.6c0,0.1,0,0.3,0,0.4c0.1,0.1,0.2,0.2,0.3,0.3c0.1,0.1,0.2,0,0.3,0 c2.3,0,4.6,0,6.8,0c0.6,0,0.7-0.1,0.7-0.7c0-0.7,0-1.3,0-2c0-0.8,0-1.6,0-2.4c0-1.1,0-2.1,0-3.2c0-0.6,0.2-0.8,0.8-0.8 c0.7,0,1.5,0,2.2,0c0.4,0,0.5,0.1,0.5,0.5c0,3.2-0.1,6.4-0.1,9.6c0,0.9,0,1.9,0,2.8c0,0.6,0,1.2-0.1,1.8s-0.4,1.1-1.1,1.3 s-1.3,0.2-1.8-0.3c-0.4-0.3-0.6-0.8-0.6-1.4c0-0.7,0-1.4,0-2c0-0.4-0.1-0.6-0.6-0.6c-2.4,0-4.8,0-7.2,0c-0.4,0-0.5,0.1-0.5,0.5 c0,2.7,0,5.4,0,8c0,0.4-0.1,0.5-0.6,0.5c-0.8,0-1.7,0-2.5,0c-0.5,0-0.6-0.1-0.6-0.6C10.8,37.9,10.8,34.6,10.8,31.3L10.8,31.3z"></path> <path class="st4" d="M28.7,28.6c0-2.4,0-4.7,0-7.1c0-0.6,0.1-0.6,0.7-0.6c0.8,0,1.7,0,2.5,0c0.5,0,0.5,0,0.5,0.5 c0,2.1,0,4.1,0,6.2c0,2.8,0,5.7-0.1,8.5c0,1.8-0.8,3.2-2.2,4.3c-1.2,0.9-2.5,1.4-3.9,1.5c-1.2,0.2-2.3,0.2-3.5-0.1 c-2.1-0.4-3.8-1.5-5.2-3.2c-0.8-1-0.9-2.1-0.8-3.3c0-0.3,0.3-0.4,0.6-0.4c0.8,0,1.7,0,2.5,0c0.5,0,0.7,0.1,0.7,0.6 c0,1.6,1.1,2.7,2.5,3.2c1.1,0.3,2.2,0.4,3.3,0.1c1.3-0.3,2.5-1.7,2.5-3.1C28.7,33.4,28.7,31,28.7,28.6z"></path> <path class="st5" d="M37.7,42.7c-0.3,0.6-0.8,0.8-1.4,0.8c-0.9,0-1.8,0-2.7,0c-1.6,0-3.1,0-4.7,0c-1,0-2.1,0-3.1,0 c-0.4,0-0.9,0-1.3,0.3c-0.3,0.2-0.4,0.4-0.5,0.8c0.1,0,0.2,0,0.3-0.1c0.9-0.4,1.8-0.5,2.7-0.5c1.2,0,2.4,0.1,3.6,0.1 c0.4,0,0.8,0,1.3,0c1,0,1.9,0,2.9,0c-0.1,0.1-0.1,0.1-0.1,0.2c-0.4,0.4-1,0.6-1.6,0.6c-2.4,0-4.7,0-7.1,0 c-0.6,0-1.2,0.1-1.6,0.7c-0.1,0.1-0.1,0.2-0.2,0.3c2.5-0.3,5-0.3,7.6-0.3c-0.3,0.5-0.7,0.9-1.2,0.9c-0.9,0-1.8-0.1-2.7-0.1 c-1.2,0-2.4-0.1-3.5,0.3c-0.4,0.1-0.7,0.4-0.8,0.8c0,0.2-0.1,0.3-0.3,0.3c-0.6,0-1.2,0-1.9,0c-0.2,0-0.4-0.1-0.5-0.3 c-0.5-0.7-1.1-1-1.9-1c-1.6,0-3.2,0-4.8,0c-0.7,0-1.3-0.2-1.9-0.5c0,0-0.1,0-0.2-0.1c2.7,0,5.4,0,8,0c0.1-0.3-0.1-0.5-0.5-0.7 c-0.7-0.2-1.4-0.3-2.1-0.3s-1.5,0-2.2,0c-1.3,0-2.7,0-4,0c-0.9,0-1.6-0.2-2.3-0.7l-0.1-0.1c3.7,0.2,7.4-0.2,11.2,0.2 c-0.1-0.4-0.4-0.6-0.7-0.6c-0.3-0.1-0.7-0.2-1-0.2c-3.4,0-6.9,0-10.4,0c-0.8,0-1.4-0.4-2-0.9c0.1,0,0.2,0,0.2,0 c2.5,0,5,0,7.5,0c1.5,0,3,0,4.5,0c0.6,0,1.3,0.1,1.9,0.4c0.8,0.4,1.2,1,1.5,1.7c0.2,0.4,0.4,0.7,0.6,1.2 c0.1-0.2,0.2-0.4,0.3-0.6c0.2-0.4,0.4-0.9,0.6-1.3c0.4-0.9,1.2-1.3,2.1-1.4c0.8-0.1,1.7-0.1,2.5-0.1c3.2,0,6.3,0,9.5,0.1 C37.3,42.6,37.5,42.7,37.7,42.7z"></path> <path class="st4" d="M20.4,24.6c0,1,0,2.1,0,3.1c0,0.4-0.1,0.5-0.5,0.5c-0.9,0-1.8,0-2.7,0c-0.4,0-0.6-0.1-0.6-0.6 c0-2.1,0-4.1,0-6.2c0-0.3,0.1-0.4,0.5-0.4c1,0,1.9,0,2.9,0c0.3,0,0.4,0.1,0.4,0.4C20.4,22.5,20.4,23.5,20.4,24.6z"></path> <path class="st6" d="M29.4,16.8c0-0.3-0.2-0.4-0.4-0.3c0,0,0,0.1-0.1,0.2C29.1,16.7,29.3,16.8,29.4,16.8z"></path> <path class="st7" d="M7.3,16.8c0.2,0,0.3-0.1,0.4-0.1c0-0.1,0-0.2-0.1-0.2C7.5,16.4,7.4,16.5,7.3,16.8z M14.7,16.8 c-0.1-0.3-0.2-0.3-0.4-0.2C14.3,16.8,14.3,16.8,14.7,16.8z"></path> <path class="st8" d="M19.6,16.4c0,0.4,0.2,0.4,0.4,0.3c0,0,0.1,0,0.1-0.1c0,0,0-0.1-0.1-0.1C20,16.5,19.8,16.5,19.6,16.4z"></path> <path class="st9" d="M29.4,16.8c-0.1,0-0.3-0.1-0.4-0.1c0-0.1,0-0.2,0.1-0.2C29.2,16.4,29.4,16.5,29.4,16.8z"></path> <path class="st9" d="M7.3,16.8c0-0.3,0.2-0.4,0.4-0.3c0,0,0,0.1,0.1,0.2C7.6,16.7,7.5,16.8,7.3,16.8z"></path> <path class="st9" d="M14.7,16.8c-0.4,0.1-0.4,0.1-0.4-0.2C14.6,16.4,14.7,16.5,14.7,16.8z"></path> <path class="st9" d="M19.6,16.4c0.2,0.1,0.3,0.1,0.5,0.1l0.1,0.1l-0.1,0.1C19.9,16.8,19.7,16.8,19.6,16.4z"></path> <polygon class="st0" points="1.3,1.1 1.1,1.1 1.1,1.6 1.5,1.6 "></polygon> <path class="st0" d="M2.7,1.1h0.9c0,0,0.2,0.9,0.6,1.3l-1,0.2L2.7,1.1z"></path> <polygon class="st0" points="42.4,1.9 42.4,1.1 42.3,1.1 42.4,1.6 "></polygon> <polygon class="st10" points="40.9,3.3 40.9,2.2 40.8,2.4 "></polygon> <path class="st0" d="M40.9,2.2c0,0-0.3,0.8-1,1.6l-0.2-0.4l0.7-1.6L40.9,2.2z"></path> <path class="st0" d="M19.1,3.4c0,0,1.6-0.9,1.6-2.2h1.8c0,0,0.3,1.2,1.3,1.9l-2-0.3l-1.5,0.1L19.1,3.4z"></path> <g> <path class="st11" d="M5.8,8.3c-0.2,0-0.2,0.1-0.2,0.2V11c0,0.1,0.1,0.2,0.2,0.2v0.3H4.9v-0.3c0.2,0,0.2-0.1,0.2-0.2V9.9H4.3 v1.2c0,0.1,0.1,0.2,0.2,0.2v0.3H3.7v-0.3c0.2,0,0.2-0.1,0.2-0.2V8.5c0-0.1-0.1-0.2-0.2-0.2V8h0.9v0.3c-0.2,0-0.2,0.1-0.2,0.2 v1h0.9v-1c0-0.1-0.1-0.2-0.2-0.2V8H6v0.3H5.8z"></path> <path class="st11" d="M7,8c0.1,0,0.3,0,0.4,0.1s0.2,0.2,0.3,0.3C7.8,8.5,7.9,8.7,7.9,9C7.9,9.2,8,9.5,8,9.8s0,0.5-0.1,0.8 S7.8,11,7.7,11.2c-0.1,0.2-0.2,0.3-0.3,0.4c-0.1,0.1-0.3,0.1-0.4,0.1s-0.3,0-0.4-0.1s-0.2-0.2-0.3-0.3 c-0.1-0.1-0.2-0.3-0.2-0.6S6,10.2,6,9.9s0-0.6,0.1-0.8c0-0.2,0.1-0.4,0.2-0.6s0.2-0.3,0.3-0.4S6.8,8,7,8z M7,8.3 c-0.1,0-0.2,0-0.3,0.1C6.6,8.5,6.6,8.6,6.5,8.7c0,0.1-0.1,0.2-0.1,0.4c0,0.2,0,0.3,0,0.6s0,0.6,0,0.8s0.1,0.4,0.1,0.5 c0.1,0.1,0.1,0.2,0.2,0.2s0.1,0.1,0.2,0.1s0.2,0,0.3-0.1c0.1-0.1,0.1-0.2,0.2-0.3s0.1-0.3,0.1-0.4s0-0.4,0-0.6 c0-0.3,0-0.5,0-0.7S7.4,8.9,7.4,8.8C7.3,8.6,7.3,8.5,7.2,8.4C7.1,8.4,7.1,8.3,7,8.3z"></path> <path class="st11" d="M10.2,11c0,0.2,0,0.3-0.1,0.4c-0.1,0.1-0.1,0.2-0.3,0.2c-0.1,0-0.2-0.1-0.3-0.2 c-0.1-0.1-0.1-0.3-0.1-0.4v-0.4c0-0.3,0-0.5-0.1-0.6s0-0.1-0.1-0.1H8.8v1.2c0,0.1,0.1,0.2,0.3,0.2v0.3h-1v-0.3 c0.2,0,0.2-0.1,0.2-0.2V8.5c0-0.1-0.1-0.2-0.2-0.2V8h1.1c0.1,0,0.2,0,0.2,0l0.2,0.1c0.1,0.1,0.1,0.2,0.2,0.3 c0,0.1,0.1,0.3,0.1,0.5c0,0.1,0,0.2,0,0.3s0,0.2-0.1,0.3c0,0.1-0.1,0.1-0.1,0.2s-0.1,0-0.1,0l0.1,0.1c0,0.1,0.1,0.1,0.1,0.2 c0,0.1,0,0.2,0.1,0.3c0,0.1,0,0.2,0,0.4v0.4c0,0.1,0,0.1,0,0.2c0,0,0,0.1,0.1,0.1c0,0,0.1,0,0.1-0.1 C10.1,11.3,10.1,11.2,10.2,11l-0.1-0.1h0.1L10.2,11L10.2,11z M8.8,8.4v1.1h0.4c0.1,0,0.2,0,0.2-0.1C9.5,9.3,9.5,9.2,9.5,9 c0-0.4-0.1-0.6-0.3-0.6H8.8L8.8,8.4z"></path> <path class="st11" d="M12.9,8.3c-0.2,0-0.2,0.1-0.2,0.2V11c0,0.1,0.1,0.2,0.2,0.2v0.3H12v-0.3c0.2,0,0.2-0.1,0.2-0.2V8.6 l-0.6,3h-0.3l-0.6-3v2.5c0,0.1,0.1,0.2,0.2,0.2v0.3h-0.7v-0.3c0.2,0,0.2-0.1,0.2-0.2V8.5c0-0.1-0.1-0.2-0.2-0.2V8H11l0.5,2.8 L12.1,8h0.7C12.9,8,12.9,8.3,12.9,8.3z"></path> <path class="st11" d="M15.1,8.3c-0.2,0-0.2,0.1-0.2,0.2v1.6c0,0.2,0,0.4,0,0.6c0,0.2-0.1,0.3-0.1,0.5 c-0.1,0.1-0.1,0.2-0.2,0.3c-0.1,0.1-0.2,0.1-0.4,0.1c-0.1,0-0.3,0-0.4-0.1c-0.1-0.1-0.2-0.2-0.3-0.3s-0.1-0.3-0.1-0.5 s0-0.4,0-0.6V8.5c0-0.1-0.1-0.2-0.2-0.2V8H14v0.3c-0.1,0-0.2,0-0.2,0.1c0,0-0.1,0.1-0.1,0.2v1.6c0,0.2,0,0.4,0,0.5 s0,0.3,0.1,0.3c0,0.1,0.1,0.2,0.2,0.2c0.1,0,0.1,0.1,0.2,0.1c0.1,0,0.2,0,0.2-0.1c0.1,0,0.1-0.1,0.2-0.2 c0-0.1,0.1-0.2,0.1-0.3s0-0.3,0-0.5V8.5c0-0.1,0-0.1-0.1-0.2c0,0-0.1-0.1-0.2-0.1V8h0.7C15.1,8,15.1,8.3,15.1,8.3z"></path> <path class="st11" d="M17.4,8.3c-0.2,0-0.2,0.1-0.2,0.2v1.6c0,0.2,0,0.4,0,0.6c0,0.2-0.1,0.3-0.1,0.5s-0.1,0.2-0.2,0.3 s-0.2,0.1-0.4,0.1c-0.1,0-0.3,0-0.4-0.1s-0.2-0.2-0.3-0.3s-0.1-0.3-0.1-0.5s0-0.4,0-0.6V8.5c0-0.1-0.1-0.2-0.2-0.2V8h0.9v0.3 c-0.1,0-0.2,0-0.2,0.1c0,0-0.1,0.1-0.1,0.2v1.6c0,0.2,0,0.4,0,0.5s0,0.3,0.1,0.3c0,0.1,0.1,0.2,0.2,0.2s0.1,0.1,0.2,0.1 s0.2,0,0.2-0.1c0.1,0,0.1-0.1,0.2-0.2c0-0.1,0.1-0.2,0.1-0.3s0-0.3,0-0.5V8.5c0-0.1,0-0.1-0.1-0.2c0,0-0.1-0.1-0.2-0.1V8h0.7 v0.3H17.4z"></path> <path class="st11" d="M18.6,8c0.2,0,0.3,0,0.4,0.1c0.1,0,0.2,0.1,0.3,0.2c0.1,0.1,0.1,0.3,0.2,0.5c0,0.2,0.1,0.5,0.1,0.9 s0,0.7-0.1,0.9c0,0.2-0.1,0.4-0.2,0.6s-0.2,0.2-0.3,0.3c-0.1,0.1-0.3,0.1-0.4,0.1h-1v-0.3c0.2,0,0.2-0.1,0.2-0.2V8.6 c0-0.1-0.1-0.2-0.2-0.2V8H18.6z M18.2,8.4v2.8h0.4c0.1,0,0.2,0,0.2-0.1c0.1-0.1,0.1-0.2,0.2-0.3s0.1-0.3,0.1-0.5s0-0.4,0-0.6 c0-0.2,0-0.4,0-0.6c0-0.2,0-0.3-0.1-0.4c0-0.1-0.1-0.2-0.2-0.2c-0.1-0.1-0.1-0.1-0.2-0.1L18.2,8.4L18.2,8.4z"></path> <path class="st11" d="M22.7,8.3c-0.2,0-0.2,0.1-0.2,0.2v1.6c0,0.2,0,0.4,0,0.6c0,0.2-0.1,0.3-0.1,0.5 c-0.1,0.1-0.1,0.2-0.2,0.3s-0.2,0.1-0.4,0.1s-0.3,0-0.4-0.1s-0.2-0.2-0.3-0.3C21,11.1,21,10.9,21,10.7s0-0.4,0-0.6V8.5 c0-0.1-0.1-0.2-0.2-0.2V8h0.9v0.3c-0.1,0-0.2,0-0.2,0.1c0,0-0.1,0.1-0.1,0.2v1.6c0,0.2,0,0.4,0,0.5s0,0.3,0.1,0.3 s0.1,0.2,0.2,0.2s0.1,0.1,0.2,0.1s0.2,0,0.2-0.1c0.1,0,0.1-0.1,0.2-0.2s0.1-0.2,0.1-0.3s0-0.3,0-0.5V8.5c0-0.1,0-0.1-0.1-0.2 c0,0-0.1-0.1-0.2-0.1V8h0.7v0.3H22.7z"></path> <path class="st11" d="M25,8.3c-0.2,0-0.2,0.1-0.2,0.2v3h-0.5l-1-2.8v2.4c0,0.1,0.1,0.2,0.2,0.2v0.3h-0.7v-0.3 c0.2,0,0.2-0.1,0.2-0.2V8.5c0-0.1-0.1-0.2-0.2-0.2V8h0.7l1,2.9V8.5c0-0.1-0.1-0.2-0.2-0.2V8H25V8.3L25,8.3z"></path> <path class="st11" d="M26.1,8.3c-0.2,0-0.2,0.1-0.2,0.2V11c0,0.1,0.1,0.2,0.2,0.2v0.3h-0.9v-0.3c0.2,0,0.2-0.1,0.2-0.2V8.5 c0-0.1-0.1-0.2-0.2-0.2V8h0.9V8.3z"></path> <path class="st11" d="M28.4,8.3c-0.1,0-0.1,0-0.2,0l-0.1,0.1l-0.7,3.1H27l-0.6-3.1c0-0.1,0-0.1-0.1-0.1h-0.1V8h0.9v0.3H27 c-0.1,0-0.1,0-0.1,0.1c0,0,0,0,0,0.1l0.5,2.5l0.5-2.5c0,0,0,0,0-0.1s0-0.1-0.1-0.1h-0.2V8h0.7L28.4,8.3z"></path> <path class="st11" d="M30.3,9.1h-0.2c0-0.5-0.1-0.7-0.3-0.7h-0.6v1.2h0.3c0.1,0,0.2-0.2,0.2-0.6h0.2v1.5h-0.2 c0-0.4-0.1-0.6-0.2-0.6h-0.3v1.3h0.5c0.3,0,0.4-0.3,0.5-1h0.2l-0.1,1.4h-1.7v-0.3c0.2,0,0.2-0.1,0.2-0.2V8.5 c0-0.1-0.1-0.2-0.2-0.2V8h1.7V9.1z"></path> <path class="st11" d="M32.6,11c0,0.2,0,0.3-0.1,0.4c-0.1,0.1-0.1,0.2-0.3,0.2c-0.1,0-0.2-0.1-0.3-0.2 c-0.1-0.1-0.1-0.3-0.1-0.4v-0.4c0-0.3,0-0.5-0.1-0.6c0-0.1-0.1-0.2-0.2-0.2h-0.4V11c0,0.1,0.1,0.2,0.3,0.2v0.3h-0.9v-0.3 c0.2,0,0.2-0.1,0.2-0.2V8.5c0-0.1-0.1-0.2-0.2-0.2V8h1.1c0.1,0,0.2,0,0.2,0L32,8.1c0.1,0.1,0.1,0.2,0.2,0.3 c0,0.1,0.1,0.3,0.1,0.5c0,0.1,0,0.2,0,0.3s-0.1,0.2-0.1,0.2c0,0.1-0.1,0.1-0.1,0.2L32,9.7l0.1,0.1c0,0.1,0.1,0.1,0.1,0.2 c0,0.1,0,0.2,0.1,0.3c0,0.1,0,0.2,0,0.4v0.4c0,0.1,0,0.1,0,0.2s0,0.1,0.1,0.1c0,0,0.1,0,0.1-0.1c0,0,0-0.1,0-0.2v-0.2L32.6,11 C32.6,10.8,32.6,11,32.6,11z M31.2,8.4v1.1h0.4c0.1,0,0.2,0,0.2-0.1c0.1-0.1,0.1-0.2,0.1-0.4c0-0.4-0.1-0.6-0.3-0.6H31.2 L31.2,8.4z"></path> <path class="st11" d="M34.3,9.3h-0.2c0-0.2,0-0.3-0.1-0.4c0-0.1-0.1-0.2-0.1-0.3c-0.1-0.1-0.1-0.1-0.2-0.2 c-0.1,0-0.2-0.1-0.2-0.1c-0.1,0-0.2,0-0.3,0.1s-0.1,0.2-0.1,0.4c0,0.1,0,0.2,0.1,0.3c0,0.1,0.1,0.1,0.2,0.2s0.1,0.1,0.2,0.1 c0.1,0,0.2,0.1,0.2,0.1c0.1,0,0.2,0.1,0.2,0.1c0.1,0.1,0.2,0.1,0.2,0.2c0.1,0.1,0.1,0.2,0.2,0.3c0,0.1,0.1,0.3,0.1,0.5 s0,0.4-0.1,0.5c0,0.1-0.1,0.3-0.2,0.3c-0.1,0.1-0.1,0.2-0.2,0.2s-0.2,0.1-0.3,0.1s-0.2,0-0.3-0.1s-0.2-0.1-0.2-0.2l-0.1-0.1 c0,0,0,0-0.1,0.1c0,0.1,0,0.1-0.1,0.2h-0.2v-1.3h0.2c0,0.2,0,0.3,0.1,0.4c0,0.1,0.1,0.2,0.1,0.3c0.1,0.1,0.1,0.2,0.2,0.2 s0.2,0.1,0.3,0.1s0.3-0.1,0.3-0.2C34,11,34,10.8,34,10.6c0-0.1,0-0.1,0-0.2c0-0.1-0.1-0.1-0.1-0.1l-0.1-0.1 c-0.1,0-0.1,0-0.2-0.1c-0.1,0-0.1,0-0.2-0.1c-0.1,0-0.1,0-0.2-0.1c-0.1,0-0.1-0.1-0.2-0.1c-0.1-0.1-0.1-0.1-0.2-0.2 c0-0.1-0.1-0.2-0.1-0.3s0-0.3,0-0.4c0-0.1,0-0.2,0-0.4c0-0.1,0.1-0.2,0.1-0.3c0.2,0,0.2-0.1,0.3-0.1C33.2,8,33.3,8,33.4,8 c0.1,0,0.2,0,0.3,0.1c0.1,0,0.2,0.1,0.2,0.2L34,8.4c0,0,0,0,0.1-0.1s0.1-0.1,0.1-0.1h0.1L34.3,9.3L34.3,9.3z"></path> <path class="st11" d="M35.5,8.3c-0.2,0-0.2,0.1-0.2,0.2V11c0,0.1,0.1,0.2,0.2,0.2v0.3h-0.9v-0.3c0.2,0,0.2-0.1,0.2-0.2V8.5 c0-0.1-0.1-0.2-0.2-0.2V8h0.9V8.3z"></path> <path class="st11" d="M37.6,9.5h-0.2c0-0.2,0-0.4,0-0.5s0-0.3-0.1-0.3c0-0.1-0.1-0.1-0.1-0.2c0,0-0.1-0.1-0.2-0.1h-0.2v2.7 c0,0.1,0.1,0.2,0.2,0.2v0.3h-0.9v-0.3c0.2,0,0.2-0.1,0.2-0.2V8.4h-0.2c-0.1,0-0.1,0-0.2,0.1c0,0-0.1,0.1-0.1,0.2 c0,0.1-0.1,0.2-0.1,0.3s0,0.3,0,0.5h-0.2V8h1.9C37.6,8,37.6,9.5,37.6,9.5z"></path> <path class="st11" d="M39.8,8.3C39.7,8.3,39.7,8.3,39.8,8.3l-0.2,0.1L39,10.1v1c0,0.1,0.1,0.2,0.3,0.2v0.3h-0.9v-0.3 c0.2,0,0.3-0.1,0.3-0.2v-1L38,8.5c0-0.1,0-0.1-0.1-0.1h-0.1V8h0.9v0.3h-0.2c-0.1,0-0.1,0-0.1,0.1c0,0,0,0,0,0.1l0.4,1.2 l0.4-1.2c0,0,0,0,0-0.1s0-0.1-0.1-0.1H39V8h0.7L39.8,8.3L39.8,8.3z"></path> </g> </g> </g> </g> </g> <g> <g> <path class="st3" d="M59.2,21h-2.3v-6.3h-6.4V21h-2.3V7h2.3v5.7h6.4V7h2.3V21z"></path> <path class="st3" d="M75.3,14c0,2.3-0.6,4-1.7,5.3s-2.7,1.9-4.8,1.9c-2.1,0-3.7-0.6-4.9-1.9c-1.1-1.3-1.7-3-1.7-5.3 s0.6-4.1,1.7-5.3c1.1-1.2,2.8-1.9,4.9-1.9s3.7,0.6,4.8,1.9C74.7,9.9,75.3,11.7,75.3,14z M64.6,14c0,1.7,0.3,3,1,3.9 s1.7,1.3,3.1,1.3s2.4-0.4,3.1-1.3s1-2.2,1-3.9s-0.3-3-1-3.9s-1.7-1.3-3.1-1.3s-2.4,0.4-3.1,1.3C65,11,64.6,12.3,64.6,14z"></path> <path class="st3" d="M80.6,15.4V21h-2.3V7h3.9c1.8,0,3.1,0.3,4,1s1.3,1.7,1.3,3.1c0,1.7-0.9,3-2.7,3.7l3.9,6.2h-2.6l-3.3-5.6 H80.6z M80.6,13.5h1.6c1.1,0,1.8-0.2,2.3-0.6c0.5-0.4,0.7-1,0.7-1.8s-0.3-1.4-0.8-1.7s-1.3-0.5-2.3-0.5h-1.5 C80.6,8.9,80.6,13.5,80.6,13.5z"></path> <path class="st3" d="M96.8,21l-4-11.7h-0.1c0.1,1.7,0.2,3.4,0.2,4.9V21h-2.1V7H94l3.9,11.1H98L102,7h3.2v14H103v-6.9 c0-0.7,0-1.6,0.1-2.7c0-1.1,0.1-1.8,0.1-2H103L98.8,21H96.8z"></path> <path class="st3" d="M119.8,7v9c0,1-0.2,1.9-0.7,2.7s-1.1,1.4-1.9,1.8s-1.8,0.6-3,0.6c-1.7,0-3.1-0.5-4-1.4 c-1-0.9-1.4-2.2-1.4-3.8V7h2.3v8.8c0,1.2,0.3,2,0.8,2.5s1.4,0.8,2.5,0.8c2.2,0,3.2-1.1,3.2-3.4V7H119.8z"></path> <path class="st3" d="M134.3,7v9c0,1-0.2,1.9-0.7,2.7s-1.1,1.4-1.9,1.8c-0.8,0.4-1.8,0.6-3,0.6c-1.7,0-3.1-0.5-4-1.4 c-1-0.9-1.4-2.2-1.4-3.8V7h2.3v8.8c0,1.2,0.3,2,0.8,2.5s1.4,0.8,2.5,0.8c2.2,0,3.2-1.1,3.2-3.4V7H134.3z"></path> <path class="st3" d="M149.2,13.9c0,2.3-0.6,4.1-1.9,5.3c-1.3,1.2-3.1,1.8-5.5,1.8h-3.9V7h4.3c2.2,0,3.9,0.6,5.2,1.8 C148.6,10,149.2,11.7,149.2,13.9z M146.8,13.9c0-3.3-1.6-5-4.7-5h-2V19h1.6C145.1,19,146.8,17.3,146.8,13.9z"></path> <path class="st4" d="M59.1,26.2v9c0,1-0.2,1.9-0.7,2.7c-0.4,0.8-1.1,1.4-1.9,1.8s-1.8,0.6-3,0.6c-1.7,0-3.1-0.5-4-1.4 c-1-0.9-1.4-2.2-1.4-3.8v-9h2.3V35c0,1.2,0.3,2,0.8,2.5s1.4,0.8,2.5,0.8c2.2,0,3.2-1.1,3.2-3.4v-8.8h2.2V26.2z"></path> <path class="st4" d="M74.3,40.2h-2.8L64.7,29h-0.1v0.6c0.1,1.2,0.1,2.3,0.1,3.2v7.3h-2.1v-14h2.8l6.8,11.1h0.1 c0-0.1,0-0.7-0.1-1.6c0-0.9-0.1-1.6-0.1-2.2v-7.3h2.1L74.3,40.2L74.3,40.2z"></path> <path class="st4" d="M78,40.2v-14h2.3v14H78z"></path> <path class="st4" d="M92,26.2h2.4l-4.9,14H87l-4.9-14h2.3l2.9,8.7c0.2,0.4,0.3,0.9,0.5,1.6s0.3,1.1,0.3,1.5 c0.1-0.5,0.2-1,0.4-1.7s0.3-1.1,0.4-1.4L92,26.2z"></path> <path class="st4" d="M104.1,40.2h-7.9v-14h7.9v1.9h-5.6v3.8h5.3v1.9h-5.3v4.4h5.6V40.2z"></path> <path class="st4" d="M109.4,34.6v5.6h-2.3v-14h3.9c1.8,0,3.1,0.3,4,1s1.3,1.7,1.3,3.1c0,1.7-0.9,3-2.7,3.7l3.9,6.2H115l-3.3-5.6 H109.4z M109.4,32.7h1.6c1.1,0,1.8-0.2,2.3-0.6s0.7-1,0.7-1.8s-0.3-1.4-0.8-1.7s-1.3-0.5-2.3-0.5h-1.5 C109.4,28.1,109.4,32.7,109.4,32.7z"></path> <path class="st4" d="M127.6,36.4c0,1.2-0.4,2.2-1.3,2.9s-2.1,1.1-3.7,1.1s-2.9-0.2-3.9-0.7v-2.2c0.6,0.3,1.3,0.5,2,0.7 s1.4,0.3,2,0.3c0.9,0,1.6-0.2,2-0.5s0.6-0.8,0.6-1.4c0-0.5-0.2-1-0.6-1.3c-0.4-0.4-1.2-0.8-2.4-1.3c-1.3-0.5-2.2-1.1-2.7-1.8 s-0.8-1.5-0.8-2.4c0-1.2,0.4-2.1,1.2-2.7c0.8-0.7,1.9-1,3.3-1c1.3,0,2.7,0.3,4,0.9l-0.7,1.9c-1.2-0.5-2.3-0.8-3.3-0.8 c-0.7,0-1.3,0.2-1.7,0.5s-0.6,0.7-0.6,1.3c0,0.4,0.1,0.7,0.2,0.9c0.2,0.3,0.4,0.5,0.8,0.7s1,0.5,1.9,0.9c1,0.4,1.8,0.8,2.3,1.2 s0.8,0.8,1.1,1.2C127.5,35.2,127.6,35.7,127.6,36.4z"></path> <path class="st4" d="M130.3,40.2v-14h2.3v14H130.3z"></path> <path class="st4" d="M141.1,40.2h-2.3v-12h-4.1v-2h10.5v2h-4.1L141.1,40.2L141.1,40.2z"></path> <path class="st4" d="M151.3,32.6l3.3-6.4h2.5l-4.7,8.5v5.4h-2.3v-5.3l-4.6-8.6h2.5L151.3,32.6z"></path> </g> </g> </g> </svg> 